<svg xmlns="http://www.w3.org/2000/svg" viewBox="0 0 84.89 84.3">
  <defs>
    <style>.cls-1{fill:#fff;}</style>
  </defs>
  <g id="Layer_2" data-name="Layer 2">
    <g id="Layer_1-2" data-name="Layer 1">
      <g id="josh">
        <path class="cls-1" d="M19.3,77.19h0a1.51,1.51,0,0,1,1.34-1.62c8-.9,13.52-3.11,19.36-5.45,6.46-2.58,13.13-5.24,23.7-6.65a1.5,1.5,0,0,1,1.68,1.31h0a1.5,1.5,0,0,1-1.31,1.66c-10.19,1.37-16.67,4-22.95,6.47-6,2.42-11.78,4.7-20.14,5.64A1.5,1.5,0,0,1,19.3,77.19Z" />
        <path id="name_flattened" data-name="name flattened" class="cls-1" d="M84.77,56.28a1.5,1.5,0,0,0-1.91-.82c-4,1.47-11.9,3.59-14.49.6-1.47-1.7-2.5-6.79,6.55-21.84A1.74,1.74,0,0,0,74.57,32h0a1.75,1.75,0,0,0-2.26,0A158.48,158.48,0,0,1,56.66,43.72a.11.11,0,0,1-.16-.14c3.54-8,6.68-17.85,3.93-23.48-1-2.1-2.29-2.36-3.16-2.22-1.76.3-3.88,2-6.79,18.48-.48,2.71-.91,5.43-1.27,7.86l-.94-.62A153.55,153.55,0,0,1,37.42,54.52a.11.11,0,0,1-.18-.09,4.62,4.62,0,0,0-1.4-3.12,5.1,5.1,0,0,0-7.26.36L14.25,67.07a.11.11,0,0,1-.18-.14c3.63-5.54,7.73-12,11.72-18.54,23-37.84,19.82-43.9,18.78-45.89A4.7,4.7,0,0,0,40,0l-.21,0C6.83,4.75,2.68,40.27,2.17,48.22A1.49,1.49,0,0,0,3.65,49.8h0a1.5,1.5,0,0,0,1.5-1.41C5.53,40.94,9,7.55,40.14,3c1.17,0,1.56.48,1.77.88C46,11.8,18.39,56.26,0,82.42H0L2.33,84.3h0L25.89,59l.19,0a4.87,4.87,0,0,0,2.77,3.11,3.79,3.79,0,0,0,1.21.2,7,7,0,0,0,4.32-2.05.14.14,0,0,1,.16,0c3.08,2.21,5.8,3.33,8.13,3.33a6.37,6.37,0,0,0,3.09-.76c2.37-1.3,3.7-4,4.43-7a0,0,0,0,1,0,0c.62-1,2.16-3.7,3.92-7.19l.06-.06c2.92-1.37,7.41-4.23,14.49-9.78a.12.12,0,0,1,.19.15C64,48.32,63.15,54.6,66.1,58c4.12,4.76,13.94,1.71,17.81.26a1.51,1.51,0,0,0,.86-2ZM57.59,21.15l.14.27c2.45,5-1.47,15.71-5.46,24.06a.12.12,0,0,1-.22-.07C53.69,34.14,55.9,23.5,57.59,21.15ZM29.83,59.27c-.48-.16-.87-1-1.13-1.89a2.07,2.07,0,0,1,.47-2l1.84-2a1.78,1.78,0,0,1,2.34-.31,1.73,1.73,0,0,1,.76,2.16l-.06.18a5.32,5.32,0,0,0-.32,1.19l0,.07C31.71,58.87,30.38,59.45,29.83,59.27Zm14.49.91c-1.9,1-4.62-.1-7-1.67a.12.12,0,0,1,0-.2c1.8-1.1,4.86-3.75,10.38-9.64l.31.12C47.88,53.06,47.1,58.67,44.32,60.18Z" />
      </g>
    </g>
  </g>
</svg>